# xmcd CD database file
#
# Track frame offsets:
#	150
#	13184
#	39045
#	55672
#	71734
#	92449
#	114542
#	129673
#	141221
#	155426
#	171688
#	189040
#	199949
#	213924
#	233869
#	251133
#
# Disc length: 3592 seconds
#
# Revision: 0
# Processed by: cddbd v1.5.1PL0 Copyright (c) Steve Scherf et al.
# Submitted via: CDex 1.50
#
DISCID=df0e0610
DTITLE=Andy Leggett - Shades Of Bechet
DYEAR=2001
DGENRE=Jazz
TTITLE0=The Fish Seller
TTITLE1=As Tu Le Cafard
TTITLE2=Dans Les Rues D' Antibes
TTITLE3=I Keep Calling Your Name
TTITLE4=Buddy Bolden Stomp
TTITLE5=Refrain For Jane
TTITLE6=The Coffe Grinder
TTITLE7=I Had It But It's All Gone Now
TTITLE8=Petite Fleur
TTITLE9=Viper Mad
TTITLE10=Pussy Willow Blues
TTITLE11=The Onions
TTITLE12=Southern Sunset
TTITLE13=Old Stack O' Lee Blues
TTITLE14=Ce Moissieu Qui Parle
TTITLE15=Gentle Treatment
EXTD=YEAR: 2001
EXTT0=
EXTT1=
EXTT2=
EXTT3=
EXTT4=
EXTT5=
EXTT6=
EXTT7=
EXTT8=
EXTT9=
EXTT10=
EXTT11=
EXTT12=
EXTT13=
EXTT14=
EXTT15=
PLAYORDER=
